<svg width="20" height="27" viewBox="0 0 20 27" fill="none" xmlns="http://www.w3.org/2000/svg">
<g clip-path="url(#clip0_194_169)">
<path d="M19.8556 5.34956C19.8539 5.19077 19.7928 5.03518 19.6767 4.91841L14.9645 0.181187C14.9644 0.18098 14.9642 0.180929 14.964 0.180773C14.8527 0.0690101 14.699 -6.10352e-05 14.5293 -6.10352e-05H1.43879C0.724154 -6.10352e-05 0.142822 0.584311 0.142822 1.30275V25.128C0.142822 25.8463 0.724102 26.4308 1.43874 26.4308H18.561C19.2756 26.4308 19.8569 25.8464 19.8569 25.128V5.35596C19.857 5.35369 19.8558 5.35178 19.8556 5.34956ZM15.1448 2.11291L17.7552 4.73711H15.2096C15.174 4.73711 15.1448 4.70784 15.1448 4.67196V2.11291ZM18.6258 25.128C18.6258 25.1639 18.5967 25.1931 18.5611 25.1931H1.43879C1.4031 25.1931 1.37403 25.1639 1.37403 25.128V1.30275C1.37403 1.26687 1.4031 1.23765 1.43879 1.23765H13.9137V4.67196C13.9137 5.39035 14.4951 5.97487 15.2097 5.97487H18.6259V25.128H18.6258Z" fill="#F8404B"/>
<path d="M15.4482 8.46686H4.55308C4.21315 8.46686 3.9375 8.74392 3.9375 9.08573C3.9375 9.42748 4.21315 9.70455 4.55308 9.70455H15.4482C15.7881 9.70455 16.0638 9.42748 16.0638 9.08573C16.0638 8.74392 15.7881 8.46686 15.4482 8.46686Z" fill="#F8404B"/>
<path d="M15.4482 12.2011H4.55308C4.21315 12.2011 3.9375 12.4782 3.9375 12.8199C3.9375 13.1617 4.21315 13.4388 4.55308 13.4388H15.4482C15.7881 13.4388 16.0638 13.1617 16.0638 12.8199C16.0638 12.4782 15.7881 12.2011 15.4482 12.2011Z" fill="#F8404B"/>
<path d="M15.4482 15.9355H4.55308C4.21315 15.9355 3.9375 16.2126 3.9375 16.5543C3.9375 16.8961 4.21315 17.1732 4.55308 17.1732H15.4482C15.7881 17.1732 16.0638 16.8961 16.0638 16.5543C16.0638 16.2126 15.7881 15.9355 15.4482 15.9355Z" fill="#F8404B"/>
<path d="M10.0007 19.6698H4.55308C4.21315 19.6698 3.9375 19.947 3.9375 20.2886C3.9375 20.6305 4.21315 20.9075 4.55308 20.9075H10.0007C10.3406 20.9075 10.6162 20.6305 10.6162 20.2886C10.6162 19.9469 10.3406 19.6698 10.0007 19.6698Z" fill="#F8404B"/>
</g>
<defs>
<clipPath id="clip0_194_169">
<rect width="20" height="27" fill="white"/>
</clipPath>
</defs>
</svg>
