<svg width="28" height="33" viewBox="0 0 28 33" fill="none" xmlns="http://www.w3.org/2000/svg">
<g clip-path="url(#clip0_194_160)">
<path d="M17.0718 15.6815C16.8059 15.416 16.375 15.416 16.1093 15.6816L14.8316 16.9593C14.6554 16.894 14.4652 16.8581 14.2665 16.8581C14.0678 16.8581 13.8773 16.894 13.7011 16.9595L11.0749 14.3332C10.8092 14.0676 10.3783 14.0676 10.1126 14.3332C9.84693 14.5989 9.84687 15.0298 10.1126 15.2956L12.7391 17.9221C12.6738 18.0981 12.638 18.2884 12.638 18.4869C12.638 19.3849 13.3686 20.1156 14.2667 20.1156C15.1648 20.1156 15.8954 19.385 15.8954 18.4869C15.8954 18.2883 15.8595 18.0979 15.7941 17.9216L17.0718 16.6439C17.3375 16.3782 17.3375 15.9473 17.0718 15.6815ZM14.2665 18.8906C14.0438 18.8906 13.8626 18.7094 13.8626 18.4867C13.8626 18.2641 14.0439 18.0828 14.2665 18.0828C14.4893 18.0828 14.6704 18.2641 14.6704 18.4867C14.6704 18.7095 14.4892 18.8906 14.2665 18.8906Z" fill="#F8404B"/>
<path d="M22.3008 8.17025L23.0718 7.06925L26.1627 9.23355C26.2778 9.31424 26.4143 9.35662 26.553 9.35662C26.5923 9.35662 26.6318 9.35325 26.6711 9.34631C26.8488 9.315 27.0067 9.21439 27.1103 9.0665C28.6703 6.83861 28.1269 3.75688 25.899 2.19679C23.6711 0.636584 20.5893 1.18014 19.0294 3.40804C18.8138 3.71586 18.8887 4.14014 19.1965 4.35567L21.9571 6.2887L21.186 7.39C19.1778 6.13344 16.8062 5.40578 14.2676 5.40578C11.729 5.40578 9.35758 6.13344 7.34928 7.39L6.57807 6.2887L9.33868 4.35567C9.64649 4.14008 9.72132 3.71586 9.50579 3.40804C7.94581 1.18008 4.86409 0.636704 2.63613 2.19673C0.408234 3.7567 -0.135202 6.83843 1.42476 9.06637C1.52827 9.21426 1.68629 9.31487 1.86398 9.34618C1.90325 9.35325 1.94278 9.35649 1.98212 9.35649C2.12076 9.35649 2.25731 9.31405 2.37239 9.23342L5.46324 7.06913L6.2342 8.17018C3.16428 10.5662 1.18651 14.2997 1.18651 18.4868C1.18651 23.0402 3.52553 27.0569 7.06463 29.4005L5.98701 30.9396C5.77142 31.2473 5.84632 31.6717 6.15408 31.8872C6.27287 31.9704 6.40892 32.0104 6.54377 32.0104C6.75822 32.0104 6.96937 31.9092 7.10173 31.7202L8.24025 30.0941C10.0452 31.035 12.0952 31.5681 14.2675 31.5681C16.4396 31.5681 18.4894 31.0352 20.2941 30.0944L21.4325 31.7202C21.5648 31.9092 21.776 32.0105 21.9904 32.0105C22.1251 32.0105 22.2613 31.9706 22.3801 31.8873C22.6879 31.6717 22.7626 31.2475 22.5471 30.9397L21.4698 29.4011C25.0092 27.0576 27.3485 23.0406 27.3485 18.487C27.3487 14.2997 25.371 10.5662 22.3008 8.17025ZM20.5877 3.66855C21.7924 2.50365 23.6959 2.31541 25.1185 3.31143C26.5412 4.30769 27.0153 6.16079 26.3326 7.69113L20.5877 3.66855ZM2.20262 7.69119C1.51993 6.16084 1.99398 4.30769 3.41675 3.31149C4.03892 2.87588 4.75285 2.66677 5.4603 2.66677C6.37042 2.66677 7.26973 3.01308 7.94752 3.6686L2.20262 7.69119ZM14.2676 30.2071C7.80504 30.2071 2.54738 24.9494 2.54738 18.4868C2.54738 12.0243 7.80504 6.76665 14.2676 6.76665C20.7302 6.76665 25.9879 12.0243 25.9879 18.4868C25.9879 24.9494 20.7302 30.2071 14.2676 30.2071Z" fill="#F8404B"/>
<path d="M14.2687 8.86649C8.96407 8.86649 4.64844 13.1822 4.64844 18.4867C4.64844 23.7913 8.96407 28.107 14.2687 28.107C19.5733 28.107 23.8889 23.7913 23.8889 18.4867C23.8889 13.1822 19.5733 8.86649 14.2687 8.86649ZM20.6637 23.9195L20.204 23.4598C19.9382 23.1941 19.5073 23.1941 19.2417 23.4598C18.976 23.7255 18.976 24.1564 19.2417 24.422L19.7014 24.8818C18.3982 25.9906 16.7534 26.709 14.9491 26.8545V26.2001C14.9491 25.8244 14.6445 25.5196 14.2687 25.5196C13.8928 25.5196 13.5882 25.8244 13.5882 26.2001V26.8545C11.7839 26.709 10.1391 25.9906 8.83584 24.8818L9.29568 24.422C9.56136 24.1563 9.56136 23.7254 9.29568 23.4598C9.02993 23.1941 8.59905 23.1941 8.33324 23.4598L7.87347 23.9195C6.76473 22.6164 6.04625 20.9715 5.90082 19.1672H6.55518C6.93102 19.1672 7.23564 18.8625 7.23564 18.4867C7.23564 18.1109 6.93102 17.8062 6.55518 17.8062H5.90082C6.04625 16.002 6.76473 14.3572 7.87347 13.0539L8.33324 13.5137C8.46618 13.6465 8.64029 13.713 8.8144 13.713C8.98851 13.713 9.16268 13.6465 9.29555 13.5137C9.56123 13.248 9.56123 12.8171 9.29555 12.5513L8.83578 12.0916C10.1389 10.9828 11.7837 10.2643 13.5881 10.1189V10.7733C13.5881 11.1491 13.8927 11.4538 14.2685 11.4538C14.6444 11.4538 14.949 11.1491 14.949 10.7733V10.1189C16.7534 10.2643 18.3981 10.9828 19.7013 12.0916L19.2416 12.5513C18.9759 12.817 18.9759 13.2479 19.2416 13.5137C19.3745 13.6465 19.5486 13.713 19.7227 13.713C19.8968 13.713 20.071 13.6465 20.2038 13.5137L20.6636 13.054C21.7724 14.3572 22.4908 16.002 22.6362 17.8062H21.9818C21.606 17.8062 21.3014 18.1109 21.3014 18.4867C21.3014 18.8625 21.6061 19.1672 21.9819 19.1672H22.6363C22.491 20.9715 21.7725 22.6163 20.6637 23.9195Z" fill="#F8404B"/>
</g>
<defs>
<clipPath id="clip0_194_160">
<rect width="28" height="31.8182" fill="white" transform="translate(0 0.748413)"/>
</clipPath>
</defs>
</svg>
