<svg width="28" height="25" viewBox="0 0 28 25" fill="none" xmlns="http://www.w3.org/2000/svg">
<g clip-path="url(#clip0_194_187)">
<path d="M24.337 11.48C24.3083 11.0813 23.9622 10.782 23.5629 10.81C23.164 10.8388 22.8641 11.1853 22.8928 11.5842C22.9106 11.8305 22.9195 12.0832 22.9195 12.3352C22.9195 18.1068 18.2241 22.8022 12.4525 22.8022C6.68095 22.8022 1.98551 18.1067 1.98551 12.3352C1.98551 6.56361 6.68095 1.86815 12.4526 1.86815C14.7383 1.86815 16.9091 2.59147 18.7301 3.95985C19.0497 4.2 19.5035 4.1356 19.7437 3.81601C19.984 3.49637 19.9196 3.04252 19.5999 2.80236C17.526 1.244 15.0545 0.420288 12.4525 0.420288C5.88266 0.420235 0.537598 5.7653 0.537598 12.3352C0.537598 18.9051 5.88266 24.25 12.4526 24.25C19.0225 24.25 24.3675 18.9051 24.3675 12.3352C24.3675 12.0486 24.3571 11.7609 24.337 11.48Z" fill="#F8404B"/>
<path d="M26.8063 2.05634C25.7051 0.955218 23.9133 0.955218 22.8121 2.05634L12.3809 12.4875L8.68304 8.78962C7.58187 7.6885 5.7901 7.6885 4.68892 8.78962C3.58774 9.89079 3.58774 11.6826 4.68892 12.7838L11.0575 19.1524C11.4223 19.5173 11.9016 19.6997 12.3809 19.6997C12.8602 19.6997 13.3394 19.5173 13.7043 19.1524L26.8063 6.05039C27.9073 4.94927 27.9073 3.15758 26.8063 2.05634ZM25.7825 5.02664L12.6804 18.1287C12.5154 18.2938 12.2465 18.2938 12.0814 18.1287L5.71283 11.7601C5.17616 11.2234 5.17616 10.3503 5.71283 9.81358C5.98116 9.5452 6.33355 9.4111 6.68605 9.4111C7.03855 9.4111 7.39099 9.54526 7.65926 9.81358L11.4633 13.6177C11.7085 13.8627 12.0344 13.9977 12.381 13.9977C12.7276 13.9977 13.0535 13.8627 13.2986 13.6176L23.836 3.08015C24.3725 2.54348 25.2458 2.54348 25.7825 3.08015C26.3191 3.61682 26.3191 4.48996 25.7825 5.02664Z" fill="#F8404B"/>
</g>
<defs>
<clipPath id="clip0_194_187">
<rect width="28" height="23.8298" fill="white" transform="translate(0 0.420288)"/>
</clipPath>
</defs>
</svg>
