<svg width="28" height="24" viewBox="0 0 28 24" fill="none" xmlns="http://www.w3.org/2000/svg">
<g clip-path="url(#clip0_194_180)">
<path d="M27.3356 14.0566C27.3356 13.599 27.1939 13.1742 26.9525 12.8229C27.5209 12.4283 27.8942 11.7713 27.8942 11.0284C27.8942 9.82448 26.9147 8.84493 25.7107 8.84493H19.9704L20.334 8.02968C20.8656 6.83766 21.1365 5.5714 21.1393 4.26623C21.1393 4.26623 21.1426 2.67333 21.1426 2.6644C21.1426 1.42702 20.1359 0.420288 18.8985 0.420288C17.9787 0.420288 17.1617 0.971269 16.817 1.82408C16.8018 1.86168 16.2796 3.40024 16.2796 3.40024C15.8087 4.76836 14.9731 5.98212 13.8634 6.91052L11.2007 9.13809H9.66137V8.43534C9.66137 7.69715 9.06077 7.0965 8.32252 7.0965H1.68663C0.948365 7.0965 0.347778 7.6971 0.347778 8.43534V21.4826C0.347778 22.2208 0.948365 22.8214 1.68663 22.8214H8.32241C9.0606 22.8214 9.66125 22.2208 9.66125 21.4826V20.4345H10.5017L11.3361 20.8378C13.3099 21.792 15.512 22.2963 17.7044 22.2963H20.756H21.6869H24.035C25.239 22.2963 26.2186 21.3168 26.2186 20.1129C26.2186 19.6554 26.0768 19.2305 25.8354 18.8792C26.4039 18.4846 26.7771 17.8276 26.7771 17.0848C26.7771 16.6273 26.6354 16.2024 26.394 15.8511C26.9625 15.4565 27.3356 14.7995 27.3356 14.0566ZM8.32241 21.4826H1.68663V8.43529H8.32241L8.32325 21.4825C8.32325 21.4825 8.32297 21.4826 8.32241 21.4826ZM25.7107 11.8732H24.7582C24.3884 11.8732 24.0888 12.1728 24.0888 12.5426C24.0888 12.9123 24.3884 13.212 24.7582 13.212H25.1522C25.6179 13.212 25.9969 13.5908 25.9969 14.0567C25.9969 14.5225 25.618 14.9013 25.1522 14.9013H24.1997C23.83 14.9013 23.5303 15.201 23.5303 15.5708C23.5303 15.9405 23.83 16.2401 24.1997 16.2401H24.5938C25.0595 16.2401 25.4384 16.619 25.4384 17.0848C25.4384 17.5505 25.0596 17.9295 24.5938 17.9295H23.6413C23.2715 17.9295 22.9718 18.2291 22.9718 18.5988C22.9718 18.9686 23.2715 19.2683 23.6413 19.2683H24.0353C24.501 19.2683 24.88 19.6472 24.88 20.1129C24.8799 20.5785 24.5009 20.9574 24.0352 20.9574H21.6871H20.7562H17.7046C15.7128 20.9574 13.7122 20.4992 11.9189 19.6324L10.9465 19.1624C10.8556 19.1185 10.756 19.0956 10.6551 19.0956H9.66137V10.4768H11.4438C11.6009 10.4768 11.7529 10.4216 11.8733 10.3209L14.7225 7.93734C16.019 6.85267 16.9952 5.43443 17.5455 3.83593C17.5455 3.83593 18.0781 2.28521 18.0812 2.27467C18.2313 1.95982 18.5461 1.75914 18.8985 1.75914C19.3977 1.75914 19.8038 2.16523 19.8038 2.6644C19.8038 2.67328 19.8005 4.26343 19.8005 4.26343C19.7982 5.38057 19.5663 6.46426 19.1113 7.48446L18.3315 9.23312C18.2632 9.38639 18.2576 9.55154 18.303 9.70038C18.3068 9.7136 18.4514 10.1838 18.9457 10.1838H25.7109C26.1766 10.1838 26.5555 10.5627 26.5555 11.0285C26.5553 11.4942 26.1765 11.8732 25.7107 11.8732Z" fill="#F8404B"/>
</g>
<defs>
<clipPath id="clip0_194_180">
<rect width="28" height="22.96" fill="white" transform="translate(0 0.420319)"/>
</clipPath>
</defs>
</svg>
