<svg width="22" height="15" viewBox="0 0 22 15" fill="none" xmlns="http://www.w3.org/2000/svg">
<g clip-path="url(#clip0_52_265)">
<path d="M0.258855 10.7997C0.428139 10.9281 0.655333 11 0.891913 11C1.12853 11 1.35572 10.9281 1.52497 10.7997L11 3.62411L20.4731 10.7997C20.6424 10.9281 20.8696 11 21.1062 11C21.3428 11 21.57 10.9281 21.7392 10.7997C21.8218 10.7372 21.8874 10.6626 21.9321 10.5801C21.9769 10.4977 22 10.4091 22 10.3196C22 10.2301 21.9769 10.1415 21.9321 10.0591C21.8874 9.97665 21.8218 9.90201 21.7392 9.83958L11.6615 2.20901C11.4845 2.075 11.2471 2 11 2C10.7528 2 10.5155 2.075 10.3385 2.20901L0.260769 9.83958C0.178239 9.90201 0.11264 9.97665 0.0678368 10.0591C0.0230697 10.1415 9.1808e-09 10.2301 8.11351e-09 10.3196C7.04623e-09 10.4091 0.0230697 10.4977 0.0678368 10.5801C0.11264 10.6626 0.178239 10.7372 0.260769 10.7997L0.258855 10.7997Z" fill="#7A7A7A"/>
</g>
<defs>
<clipPath id="clip0_52_265">
<rect width="15" height="22" fill="white" transform="translate(0 15) rotate(-90)"/>
</clipPath>
</defs>
</svg>
