<svg width="27" height="27" viewBox="0 0 27 27" fill="none" xmlns="http://www.w3.org/2000/svg">
<path d="M13.5 20.25L8.36157 12.9937C7.5205 12.0007 6.97887 10.7892 6.79975 9.50019C6.62063 8.21123 6.8114 6.8979 7.34983 5.71316C7.88827 4.52842 8.75221 3.52104 9.84105 2.80833C10.9299 2.09562 12.1988 1.70692 13.5 1.6875C15.3037 1.70532 17.0269 2.43725 18.292 3.72297C19.5572 5.0087 20.2613 6.74341 20.25 8.54719C20.2507 10.1207 19.715 11.6475 18.7313 12.8756L13.5 20.25ZM13.5 3.375C12.1431 3.39058 10.8479 3.94401 9.89872 4.91375C8.94954 5.8835 8.424 7.19029 8.43751 8.54719C8.44316 9.78566 8.88873 10.9818 9.69469 11.9222L13.5 17.3138L17.4066 11.8125C18.1491 10.8856 18.5565 9.73485 18.5625 8.54719C18.576 7.19029 18.0505 5.8835 17.1013 4.91375C16.1521 3.94401 14.8569 3.39058 13.5 3.375Z" fill="#7A7A7A"/>
<path d="M13.5 9.28125C14.432 9.28125 15.1875 8.52573 15.1875 7.59375C15.1875 6.66177 14.432 5.90625 13.5 5.90625C12.568 5.90625 11.8125 6.66177 11.8125 7.59375C11.8125 8.52573 12.568 9.28125 13.5 9.28125Z" fill="#7A7A7A"/>
<path d="M23.625 10.125H21.9375V11.8125H23.625V23.625H3.375V11.8125H5.0625V10.125H3.375C2.92745 10.125 2.49822 10.3028 2.18176 10.6193C1.86529 10.9357 1.6875 11.3649 1.6875 11.8125V23.625C1.6875 24.0726 1.86529 24.5018 2.18176 24.8182C2.49822 25.1347 2.92745 25.3125 3.375 25.3125H23.625C24.0726 25.3125 24.5018 25.1347 24.8182 24.8182C25.1347 24.5018 25.3125 24.0726 25.3125 23.625V11.8125C25.3125 11.3649 25.1347 10.9357 24.8182 10.6193C24.5018 10.3028 24.0726 10.125 23.625 10.125Z" fill="#7A7A7A"/>
</svg>
