<svg width="25" height="23" viewBox="0 0 25 23" fill="none" xmlns="http://www.w3.org/2000/svg">
<path d="M3.60687 20.5619L7.17425 19.3722L7.79863 19.6844C9.233 20.3999 10.8277 20.7812 12.5 20.7812C18.0856 20.7812 22.625 16.3836 22.625 11.5C22.625 6.61637 18.0856 2.21875 12.5 2.21875C6.91438 2.21875 2.375 6.61637 2.375 11.5C2.375 13.3225 3.03313 15.172 4.24306 16.7532L4.82525 17.5126L3.60519 20.5602L3.60687 20.5619ZM2.41381 22.7387C2.26111 22.7899 2.09694 22.7963 1.94072 22.7572C1.7845 22.718 1.64274 22.635 1.53219 22.5179C1.42164 22.4008 1.34692 22.2545 1.31685 22.0962C1.28678 21.938 1.30262 21.7745 1.3625 21.625L2.9015 17.7775C1.4975 15.9381 0.6875 13.7376 0.6875 11.5C0.6875 5.90762 5.75 0.53125 12.5 0.53125C19.25 0.53125 24.3125 5.90762 24.3125 11.5C24.3125 17.0924 19.25 22.4687 12.5 22.4687C10.6069 22.4741 8.73874 22.0372 7.04431 21.193L2.41381 22.7371V22.7387Z" fill="#7A7A7A"/>
</svg>
