<svg width="18" height="18" viewBox="0 0 18 18" fill="none" xmlns="http://www.w3.org/2000/svg">
<path d="M3.75 0C2.75544 0 1.80161 0.395088 1.09835 1.09835C0.395088 1.80161 0 2.75544 0 3.75V14.25C0 15.2446 0.395088 16.1984 1.09835 16.9016C1.80161 17.6049 2.75544 18 3.75 18H14.25C15.2446 18 16.1984 17.6049 16.9016 16.9016C17.6049 16.1984 18 15.2446 18 14.25V3.75C18 2.75544 17.6049 1.80161 16.9016 1.09835C16.1984 0.395088 15.2446 0 14.25 0H3.75ZM1.5 3.75C1.5 3.15326 1.73705 2.58097 2.15901 2.15901C2.58097 1.73705 3.15326 1.5 3.75 1.5H14.25C14.8467 1.5 15.419 1.73705 15.841 2.15901C16.2629 2.58097 16.5 3.15326 16.5 3.75V14.25C16.5 14.8467 16.2629 15.419 15.841 15.841C15.419 16.2629 14.8467 16.5 14.25 16.5H3.75C3.15326 16.5 2.58097 16.2629 2.15901 15.841C1.73705 15.419 1.5 14.8467 1.5 14.25V3.75ZM13.281 7.281C13.4218 7.14017 13.5009 6.94916 13.5009 6.75C13.5009 6.55084 13.4218 6.35983 13.281 6.219C13.1402 6.07817 12.9492 5.99905 12.75 5.99905C12.5508 5.99905 12.3598 6.07817 12.219 6.219L7.5 10.9395L5.781 9.219C5.64017 9.07817 5.44916 8.99905 5.25 8.99905C5.05084 8.99905 4.85983 9.07817 4.719 9.219C4.57817 9.35983 4.49905 9.55084 4.49905 9.75C4.49905 9.94916 4.57817 10.1402 4.719 10.281L6.969 12.531C7.03867 12.6008 7.12143 12.6563 7.21255 12.6941C7.30367 12.7319 7.40135 12.7513 7.5 12.7513C7.59865 12.7513 7.69633 12.7319 7.78745 12.6941C7.87857 12.6563 7.96133 12.6008 8.031 12.531L13.281 7.281Z" fill="#E30016"/>
</svg>
