<svg width="22" height="18" viewBox="0 0 22 18" fill="none" xmlns="http://www.w3.org/2000/svg">
<path d="M18.15 0.199951C19.012 0.199951 19.8386 0.542361 20.4481 1.15185C21.0576 1.76135 21.4 2.588 21.4 3.44995V13.85C21.4 14.7119 21.0576 15.5386 20.4481 16.148C19.8386 16.7575 19.012 17.1 18.15 17.1H3.85001C2.98805 17.1 2.1614 16.7575 1.55191 16.148C0.942416 15.5386 0.600006 14.7119 0.600006 13.85V3.44995C0.600006 2.588 0.942416 1.76135 1.55191 1.15185C2.1614 0.542361 2.98805 0.199951 3.85001 0.199951H18.15ZM20.1 5.34925L11.3302 10.5103C11.2473 10.5589 11.1546 10.5886 11.0589 10.5972C10.9631 10.6057 10.8666 10.5929 10.7764 10.5597L10.6698 10.5103L1.90001 5.35185V13.85C1.90001 14.3671 2.10545 14.8631 2.47115 15.2288C2.83684 15.5945 3.33283 15.8 3.85001 15.8H18.15C18.6672 15.8 19.1632 15.5945 19.5289 15.2288C19.8946 14.8631 20.1 14.3671 20.1 13.85V5.34925ZM18.15 1.49995H3.85001C3.33283 1.49995 2.83684 1.7054 2.47115 2.07109C2.10545 2.43679 1.90001 2.93278 1.90001 3.44995V3.84255L11 9.19595L20.1 3.83995V3.44995C20.1 2.93278 19.8946 2.43679 19.5289 2.07109C19.1632 1.7054 18.6672 1.49995 18.15 1.49995Z" fill="#E30016"/>
</svg>
