<svg width="34" height="34" viewBox="0 0 34 34" fill="none" xmlns="http://www.w3.org/2000/svg">
<circle cx="17" cy="17" r="16.5" stroke="#E30016"/>
<g clip-path="url(#clip0_253_378)">
<path d="M17.879 16.9704L22.2395 12.6099C22.3375 12.4955 22.3887 12.3483 22.3829 12.1977C22.3771 12.0472 22.3147 11.9044 22.2082 11.7979C22.1016 11.6913 21.9588 11.6289 21.8083 11.6231C21.6578 11.6173 21.5106 11.6685 21.3961 11.7665L17.0356 16.127L12.6751 11.7605C12.5607 11.6625 12.4135 11.6113 12.263 11.6171C12.1125 11.623 11.9697 11.6854 11.8631 11.7919C11.7566 11.8984 11.6942 12.0412 11.6884 12.1918C11.6826 12.3423 11.7338 12.4895 11.8318 12.6039L16.1923 16.9704L11.8258 21.3309C11.7632 21.3845 11.7123 21.4505 11.6764 21.5247C11.6405 21.5989 11.6203 21.6798 11.6171 21.7621C11.614 21.8445 11.6278 21.9267 11.6579 22.0034C11.688 22.0802 11.7336 22.1499 11.7919 22.2082C11.8502 22.2665 11.9199 22.3121 11.9967 22.3421C12.0734 22.3722 12.1556 22.3861 12.2379 22.3829C12.3203 22.3797 12.4011 22.3596 12.4753 22.3237C12.5496 22.2878 12.6155 22.2369 12.6692 22.1743L17.0356 17.8138L21.3961 22.1743C21.5106 22.2723 21.6578 22.3235 21.8083 22.3177C21.9588 22.3119 22.1016 22.2494 22.2082 22.1429C22.3147 22.0364 22.3771 21.8936 22.3829 21.7431C22.3887 21.5925 22.3375 21.4453 22.2395 21.3309L17.879 16.9704Z" fill="#E30016"/>
</g>
<defs>
<clipPath id="clip0_253_378">
<rect width="21.5333" height="21.5333" fill="white" transform="translate(6.2334 6.2334)"/>
</clipPath>
</defs>
</svg>
