<svg width="18" height="18" viewBox="0 0 18 18" fill="none" xmlns="http://www.w3.org/2000/svg">
<g clip-path="url(#clip0_175_201)">
<path d="M9.00001 3.35999C8.43337 3.35999 7.87945 3.52801 7.4083 3.84282C6.93716 4.15764 6.56994 4.60509 6.3531 5.1286C6.13625 5.65211 6.07951 6.22816 6.19006 6.78392C6.30061 7.33967 6.57347 7.85017 6.97415 8.25085C7.37483 8.65152 7.88532 8.92439 8.44108 9.03494C8.99683 9.14548 9.57289 9.08875 10.0964 8.8719C10.6199 8.65506 11.0674 8.28784 11.3822 7.81669C11.697 7.34555 11.865 6.79163 11.865 6.22499C11.865 5.46514 11.5632 4.73642 11.0259 4.19912C10.4886 3.66183 9.75986 3.35999 9.00001 3.35999ZM9.00001 8.08999C8.63115 8.08999 8.27057 7.98061 7.96387 7.77568C7.65717 7.57075 7.41813 7.27947 7.27698 6.93869C7.13582 6.59791 7.09889 6.22292 7.17085 5.86114C7.24281 5.49937 7.42043 5.16706 7.68126 4.90623C7.94208 4.64541 8.27439 4.46778 8.63617 4.39582C8.99794 4.32386 9.37293 4.36079 9.71372 4.50195C10.0545 4.64311 10.3458 4.88215 10.5507 5.18885C10.7556 5.49554 10.865 5.85612 10.865 6.22499C10.8637 6.71875 10.6666 7.19183 10.317 7.54051C9.96739 7.88918 9.49377 8.08499 9.00001 8.08499V8.08999Z" fill="#A5A0A0"/>
<path d="M8.99999 1C7.44258 1.0013 5.94898 1.61884 4.84539 2.71775C3.7418 3.81665 3.11791 5.30762 3.10999 6.865C3.10999 9.2 4.41999 11.155 5.37999 12.58L5.55499 12.84C6.51012 14.2243 7.53477 15.5594 8.62499 16.84L9.00499 17.285L9.38499 16.84C10.4751 15.5592 11.4997 14.2242 12.455 12.84L12.63 12.575C13.585 11.15 14.895 9.2 14.895 6.865C14.8871 5.30675 14.2625 3.81503 13.1578 2.71599C12.0531 1.61694 10.5583 0.99998 8.99999 1ZM11.795 12L11.615 12.265C10.755 13.555 9.61499 15 8.99999 15.715C8.40999 15 7.24499 13.555 6.38499 12.265L6.20999 12C5.32499 10.68 4.10999 8.875 4.10999 6.845C4.10999 6.20284 4.23647 5.56696 4.48221 4.97368C4.72796 4.3804 5.08815 3.84133 5.54223 3.38725C5.99631 2.93317 6.53538 2.57297 7.12866 2.32723C7.72195 2.08148 8.35782 1.955 8.99999 1.955C9.64215 1.955 10.278 2.08148 10.8713 2.32723C11.4646 2.57297 12.0037 2.93317 12.4577 3.38725C12.9118 3.84133 13.272 4.3804 13.5178 4.97368C13.7635 5.56696 13.89 6.20284 13.89 6.845C13.89 8.895 12.68 10.7 11.795 12Z" fill="#A5A0A0"/>
</g>
<defs>
<clipPath id="clip0_175_201">
<rect width="18" height="18" fill="white"/>
</clipPath>
</defs>
</svg>
