<svg width="27" height="27" viewBox="0 0 27 27" fill="none" xmlns="http://www.w3.org/2000/svg">
<path d="M22.5562 12.25H4.44375C3.8535 12.25 3.375 12.569 3.375 12.9625V13.0375C3.375 13.431 3.8535 13.75 4.44375 13.75H22.5562C23.1465 13.75 23.625 13.431 23.625 13.0375V12.9625C23.625 12.569 23.1465 12.25 22.5562 12.25Z" fill="#7A7A7A"/>
<path d="M22.5562 17.75H4.44375C3.8535 17.75 3.375 18.069 3.375 18.4625V18.5375C3.375 18.931 3.8535 19.25 4.44375 19.25H22.5562C23.1465 19.25 23.625 18.931 23.625 18.5375V18.4625C23.625 18.069 23.1465 17.75 22.5562 17.75Z" fill="#7A7A7A"/>
<path d="M22.5562 6.75H4.44375C3.8535 6.75 3.375 7.069 3.375 7.4625V7.5375C3.375 7.931 3.8535 8.25 4.44375 8.25H22.5562C23.1465 8.25 23.625 7.931 23.625 7.5375V7.4625C23.625 7.069 23.1465 6.75 22.5562 6.75Z" fill="#7A7A7A"/>
</svg>
