<svg width="24" height="18" viewBox="0 0 24 18" fill="none" xmlns="http://www.w3.org/2000/svg">
<path d="M16.9 13.2C16.7143 13.2 16.5363 13.2737 16.405 13.405C16.2737 13.5363 16.2 13.7143 16.2 13.9C16.2 14.0856 16.2737 14.2637 16.405 14.395C16.5363 14.5262 16.7143 14.6 16.9 14.6H19.7C19.8857 14.6 20.0637 14.5262 20.195 14.395C20.3263 14.2637 20.4 14.0856 20.4 13.9C20.4 13.7143 20.3263 13.5363 20.195 13.405C20.0637 13.2737 19.8857 13.2 19.7 13.2H16.9ZM0.799999 4.09998C0.799999 3.17172 1.16875 2.28148 1.82513 1.6251C2.4815 0.968725 3.37174 0.599976 4.3 0.599976H19.7C20.6283 0.599976 21.5185 0.968725 22.1749 1.6251C22.8312 2.28148 23.2 3.17172 23.2 4.09998V13.9C23.2 14.8282 22.8312 15.7185 22.1749 16.3749C21.5185 17.0312 20.6283 17.4 19.7 17.4H4.3C3.37174 17.4 2.4815 17.0312 1.82513 16.3749C1.16875 15.7185 0.799999 14.8282 0.799999 13.9V4.09998ZM2.2 13.9C2.2 14.4569 2.42125 14.9911 2.81507 15.3849C3.2089 15.7787 3.74304 16 4.3 16H19.7C20.257 16 20.7911 15.7787 21.1849 15.3849C21.5787 14.9911 21.8 14.4569 21.8 13.9V7.59998H2.2V13.9ZM21.8 4.09998C21.8 3.54302 21.5787 3.00888 21.1849 2.61505C20.7911 2.22122 20.257 1.99998 19.7 1.99998H4.3C3.74304 1.99998 3.2089 2.22122 2.81507 2.61505C2.42125 3.00888 2.2 3.54302 2.2 4.09998V6.19998H21.8V4.09998Z" fill="#7A7A7A"/>
</svg>
