<svg width="22" height="21" viewBox="0 0 22 21" fill="none" xmlns="http://www.w3.org/2000/svg">
<path d="M16.9461 20.6578C16.7406 20.6572 16.5357 20.6347 16.335 20.5906C12.5135 19.8 8.99287 17.9465 6.17833 15.2433C3.42385 12.5342 1.51347 9.08493 0.678333 5.31279C0.579859 4.84267 0.604029 4.35512 0.748516 3.89704C0.893003 3.43896 1.15294 3.02578 1.50333 2.69724L3.94778 0.344461C4.07263 0.226386 4.22098 0.135968 4.38314 0.0791053C4.54531 0.0222431 4.71764 0.000215624 4.88889 0.0144606C5.06646 0.0329852 5.23781 0.0901854 5.3909 0.182039C5.54399 0.273892 5.67509 0.398168 5.775 0.546127L8.83055 5.06224C8.94514 5.23747 9.00045 5.44485 8.98835 5.65388C8.97625 5.8629 8.89738 6.06251 8.76333 6.22335L7.22944 8.05668C7.84034 9.40874 8.70549 10.6307 9.77778 11.6561C10.8431 12.7187 12.1023 13.5672 13.4872 14.1556L15.3878 12.6461C15.5474 12.52 15.7416 12.4454 15.9447 12.4323C16.1477 12.4192 16.3499 12.4682 16.5244 12.5728L21.1383 15.555C21.2967 15.6496 21.4316 15.7787 21.5329 15.9328C21.6342 16.0868 21.6994 16.2618 21.7235 16.4447C21.7476 16.6275 21.73 16.8134 21.6721 16.9885C21.6141 17.1635 21.5173 17.3232 21.3889 17.4556L19.0056 19.8145C18.7348 20.0839 18.4135 20.2971 18.0601 20.4418C17.7066 20.5865 17.328 20.6599 16.9461 20.6578ZM4.79111 1.22446L2.34667 3.57724C2.14955 3.76091 2.00364 3.99272 1.92328 4.24988C1.84292 4.50704 1.83087 4.78068 1.88833 5.04391C2.66488 8.58354 4.44994 11.8225 7.02778 14.3695C9.67645 16.9126 12.9895 18.656 16.5856 19.3989C16.8577 19.4558 17.1398 19.4443 17.4064 19.3654C17.6731 19.2864 17.916 19.1426 18.1133 18.9467L20.4967 16.5878L16.0417 13.7095L14.0006 15.335C13.9224 15.3969 13.8303 15.4387 13.7323 15.4568C13.6343 15.4749 13.5334 15.4687 13.4383 15.4389C11.7435 14.8145 10.2077 13.8232 8.94056 12.5361C7.62994 11.3122 6.6126 9.80813 5.96444 8.13613C5.93702 8.03491 5.93611 7.92833 5.9618 7.82665C5.98749 7.72498 6.0389 7.63162 6.11111 7.55557L7.76111 5.58168L4.79111 1.22446Z" fill="#E30016"/>
</svg>
