<svg width="19" height="20" viewBox="0 0 19 20" fill="none" xmlns="http://www.w3.org/2000/svg">
<path d="M5.44953 13.3232V15.0074H11.6616V16.2222H5.44953V19.8113H3.40646V16.2222H0.507516V15.0074H3.40646V0.485024H10.64C13.1248 0.485024 15.0575 1.04641 16.4379 2.16917C17.8368 3.27353 18.5362 4.84725 18.5362 6.89032C18.5362 8.95179 17.8368 10.5439 16.4379 11.6667C15.0575 12.771 13.1248 13.3232 10.64 13.3232H5.44953ZM5.44953 2.252V11.5839H10.6676C12.545 11.5839 13.9807 11.1789 14.9746 10.3691C15.987 9.55919 16.4931 8.40881 16.4931 6.91793C16.4931 5.42704 15.987 4.27666 14.9746 3.4668C13.9807 2.65693 12.545 2.252 10.6676 2.252H5.44953Z" fill="white"/>
</svg>
