<svg width="16" height="16" viewBox="0 0 16 16" fill="none" xmlns="http://www.w3.org/2000/svg">
<path d="M13.8067 2.43638C13.8067 2.43638 15.1017 1.93138 14.9933 3.15771C14.9577 3.66271 14.634 5.43038 14.382 7.34205L13.5187 13.0054C13.5187 13.0054 13.4467 13.835 12.799 13.9794C12.1517 14.1234 11.1803 13.4744 11.0003 13.33C10.8563 13.2217 8.30234 11.5984 7.403 10.805C7.151 10.5884 6.863 10.1557 7.439 9.65071L11.216 6.04338C11.6477 5.61071 12.0793 4.60071 10.2807 5.82705L5.244 9.25371C5.244 9.25371 4.66834 9.61471 3.58934 9.29005L1.25067 8.56838C1.25067 8.56838 0.387337 8.02738 1.86234 7.48638C5.46 5.79105 9.885 4.05971 13.806 2.43638H13.8067Z" fill="white"/>
</svg>
