<svg width="12" height="12" viewBox="0 0 12 12" fill="none" xmlns="http://www.w3.org/2000/svg">
<path d="M10.375 11.6875H10.3006C1.70377 11.1931 0.483142 3.93938 0.312517 1.72563C0.298768 1.5535 0.319118 1.38036 0.372399 1.21612C0.425681 1.05187 0.510847 0.899758 0.623018 0.768485C0.735189 0.637213 0.87216 0.529363 1.02608 0.451117C1.18001 0.372871 1.34786 0.325766 1.52002 0.3125H3.93064C4.10589 0.312331 4.27714 0.364786 4.42223 0.463071C4.56732 0.561356 4.67955 0.700943 4.74439 0.863751L5.40939 2.5C5.47342 2.65905 5.48931 2.83341 5.45509 3.00142C5.42086 3.16942 5.33804 3.32367 5.21689 3.445L4.28502 4.38563C4.43058 5.21283 4.82672 5.97535 5.41985 6.57004C6.01297 7.16473 6.77445 7.56288 7.60127 7.71062L8.55064 6.77C8.6738 6.65019 8.8295 6.5693 8.99833 6.5374C9.16716 6.5055 9.34164 6.52401 9.50002 6.59063L11.1494 7.25125C11.3097 7.31814 11.4466 7.43125 11.5424 7.57617C11.6382 7.72109 11.6887 7.89126 11.6875 8.065V10.375C11.6875 10.7231 11.5492 11.0569 11.3031 11.3031C11.057 11.5492 10.7231 11.6875 10.375 11.6875ZM1.62502 1.1875C1.50898 1.1875 1.3977 1.23359 1.31566 1.31564C1.23361 1.39769 1.18752 1.50897 1.18752 1.625V1.66C1.38877 4.25 2.67939 10.375 10.3488 10.8125C10.4062 10.8161 10.4639 10.8082 10.5183 10.7895C10.5727 10.7707 10.6229 10.7414 10.666 10.7032C10.7091 10.665 10.7442 10.6186 10.7694 10.5668C10.7945 10.515 10.8092 10.4587 10.8125 10.4012V8.065L9.16314 7.40437L7.90752 8.65125L7.69752 8.625C3.89127 8.14813 3.37502 4.34188 3.37502 4.3025L3.34877 4.0925L4.59127 2.83688L3.93502 1.1875H1.62502Z" fill="white"/>
</svg>
